<mxfile host="app.diagrams.net" modified="2020-08-05T04:56:34.515Z" agent="5.0 (Windows NT 10.0; Win64; x64) AppleWebKit/537.36 (KHTML, like Gecko) Chrome/84.0.4147.105 Safari/537.36" etag="Z5p9nGWvun6KdxhJ2Ur0" version="13.5.9" type="github">
  <diagram name="Page-1" id="12e1b939-464a-85fe-373e-61e167be1490">
    <mxGraphModel dx="782" dy="515" grid="1" gridSize="10" guides="1" tooltips="1" connect="1" arrows="1" fold="1" page="1" pageScale="1.5" pageWidth="1169" pageHeight="826" background="#ffffff" math="0" shadow="0">
      <root>
        <mxCell id="0" />
        <mxCell id="1" parent="0" />
        <mxCell id="60da8b9f42644d3a-2" value="ERP System" style="whiteSpace=wrap;html=1;rounded=1;shadow=0;strokeWidth=8;fontSize=20;align=center;fillColor=#FED217;strokeColor=#FFFFFF;" parent="1" vertex="1">
          <mxGeometry x="280" y="210" width="150" height="150" as="geometry" />
        </mxCell>
        <mxCell id="60da8b9f42644d3a-19" value="Forms&lt;div&gt;Calls-to-Action&lt;/div&gt;&lt;div&gt;Landing Pages&lt;/div&gt;" style="text;html=1;strokeColor=none;fillColor=none;align=center;verticalAlign=middle;whiteSpace=wrap;rounded=0;shadow=0;fontSize=14;fontColor=#FFFFFF;" parent="1" vertex="1">
          <mxGeometry x="610" y="1030" width="280" height="90" as="geometry" />
        </mxCell>
        <mxCell id="deuajbwWMbh2x0gzHQ-c-1" value="" style="whiteSpace=wrap;html=1;rounded=1;shadow=0;strokeWidth=8;fontSize=20;align=center;fillColor=#FED217;strokeColor=#FFFFFF;" vertex="1" parent="1">
          <mxGeometry x="280" y="400" width="150" height="150" as="geometry" />
        </mxCell>
        <mxCell id="deuajbwWMbh2x0gzHQ-c-3" value="&lt;font style=&quot;font-size: 20px&quot;&gt;SoftPOS&amp;nbsp;&lt;/font&gt;" style="text;html=1;strokeColor=none;fillColor=none;align=center;verticalAlign=middle;whiteSpace=wrap;rounded=0;" vertex="1" parent="1">
          <mxGeometry x="337.5" y="520" width="35" height="20" as="geometry" />
        </mxCell>
        <mxCell id="deuajbwWMbh2x0gzHQ-c-4" value="SoftPOS Mobile App&lt;br&gt;&lt;br&gt;" style="rounded=1;whiteSpace=wrap;html=1;fillColor=#d5e8d4;strokeColor=#82b366;" vertex="1" parent="1">
          <mxGeometry x="295" y="410" width="120" height="100" as="geometry" />
        </mxCell>
        <mxCell id="deuajbwWMbh2x0gzHQ-c-5" value="SoftPOS SDK" style="rounded=1;whiteSpace=wrap;html=1;fillColor=#f8cecc;strokeColor=#b85450;" vertex="1" parent="1">
          <mxGeometry x="302.5" y="470" width="105" height="35" as="geometry" />
        </mxCell>
        <mxCell id="deuajbwWMbh2x0gzHQ-c-10" value="&lt;font style=&quot;font-size: 19px&quot;&gt;Payment Facilitator&lt;/font&gt;" style="rounded=1;whiteSpace=wrap;html=1;fillColor=#fff2cc;strokeColor=#d6b656;" vertex="1" parent="1">
          <mxGeometry x="270" y="600" width="520" height="90" as="geometry" />
        </mxCell>
        <mxCell id="deuajbwWMbh2x0gzHQ-c-11" value="&lt;span style=&quot;color: rgb(0 , 0 , 0) ; font-family: &amp;#34;helvetica&amp;#34; ; font-style: normal ; font-weight: 400 ; letter-spacing: normal ; text-align: center ; text-indent: 0px ; text-transform: none ; word-spacing: 0px ; background-color: rgb(248 , 249 , 250) ; display: inline ; float: none&quot;&gt;&lt;font style=&quot;font-size: 14px&quot;&gt;(MNG Kargo)&lt;/font&gt;&lt;/span&gt;" style="text;whiteSpace=wrap;html=1;" vertex="1" parent="1">
          <mxGeometry x="310" y="350" width="140" height="30" as="geometry" />
        </mxCell>
        <mxCell id="deuajbwWMbh2x0gzHQ-c-12" value="&lt;span style=&quot;color: rgb(0 , 0 , 0) ; font-family: &amp;#34;helvetica&amp;#34; ; font-style: normal ; font-weight: 400 ; letter-spacing: normal ; text-align: center ; text-indent: 0px ; text-transform: none ; word-spacing: 0px ; background-color: rgb(248 , 249 , 250) ; display: inline ; float: none&quot;&gt;&lt;font style=&quot;font-size: 14px&quot;&gt;(MNG Kargo Agent)&lt;/font&gt;&lt;/span&gt;" style="text;whiteSpace=wrap;html=1;" vertex="1" parent="1">
          <mxGeometry x="290" y="550" width="140" height="30" as="geometry" />
        </mxCell>
        <mxCell id="deuajbwWMbh2x0gzHQ-c-13" value="Kuveyt Türk" style="rounded=1;whiteSpace=wrap;html=1;fillColor=#fff2cc;strokeColor=#d6b656;" vertex="1" parent="1">
          <mxGeometry x="270" y="740" width="70" height="40" as="geometry" />
        </mxCell>
        <mxCell id="deuajbwWMbh2x0gzHQ-c-14" value="İşBank" style="rounded=1;whiteSpace=wrap;html=1;fillColor=#fff2cc;strokeColor=#d6b656;" vertex="1" parent="1">
          <mxGeometry x="360" y="740" width="70" height="40" as="geometry" />
        </mxCell>
        <mxCell id="deuajbwWMbh2x0gzHQ-c-15" value="Garanti" style="rounded=1;whiteSpace=wrap;html=1;fillColor=#fff2cc;strokeColor=#d6b656;" vertex="1" parent="1">
          <mxGeometry x="450" y="740" width="70" height="40" as="geometry" />
        </mxCell>
        <mxCell id="deuajbwWMbh2x0gzHQ-c-16" value="" style="endArrow=none;dashed=1;html=1;fillColor=#dae8fc;strokeColor=#6c8ebf;" edge="1" parent="1">
          <mxGeometry width="50" height="50" relative="1" as="geometry">
            <mxPoint x="550" y="759.5" as="sourcePoint" />
            <mxPoint x="680" y="760" as="targetPoint" />
          </mxGeometry>
        </mxCell>
        <mxCell id="deuajbwWMbh2x0gzHQ-c-22" value="BKM" style="rounded=1;whiteSpace=wrap;html=1;fillColor=#fff2cc;strokeColor=#d6b656;" vertex="1" parent="1">
          <mxGeometry x="720" y="740" width="70" height="40" as="geometry" />
        </mxCell>
        <mxCell id="deuajbwWMbh2x0gzHQ-c-25" value="&lt;span style=&quot;font-weight: normal&quot;&gt;&lt;font style=&quot;font-size: 12px&quot;&gt;GIB Integration&lt;/font&gt;&lt;/span&gt;" style="label;whiteSpace=wrap;html=1;image=img/clipart/Gear_128x128.png;fillColor=#d5e8d4;strokeColor=#82b366;" vertex="1" parent="1">
          <mxGeometry x="193" y="300" width="117" height="60" as="geometry" />
        </mxCell>
        <mxCell id="deuajbwWMbh2x0gzHQ-c-26" value="" style="endArrow=none;html=1;exitX=0.5;exitY=0;exitDx=0;exitDy=0;entryX=0.069;entryY=1.006;entryDx=0;entryDy=0;entryPerimeter=0;strokeColor=none;" edge="1" parent="1" source="deuajbwWMbh2x0gzHQ-c-13" target="deuajbwWMbh2x0gzHQ-c-10">
          <mxGeometry width="50" height="50" relative="1" as="geometry">
            <mxPoint x="312.5" y="720" as="sourcePoint" />
            <mxPoint x="308" y="695" as="targetPoint" />
          </mxGeometry>
        </mxCell>
        <mxCell id="deuajbwWMbh2x0gzHQ-c-28" value="" style="endArrow=classic;startArrow=classic;html=1;startSize=1;endSize=1;jumpSize=2;fillColor=#dae8fc;strokeColor=#6c8ebf;" edge="1" parent="1">
          <mxGeometry width="50" height="50" relative="1" as="geometry">
            <mxPoint x="304.75" y="740" as="sourcePoint" />
            <mxPoint x="304.75" y="690" as="targetPoint" />
          </mxGeometry>
        </mxCell>
        <mxCell id="deuajbwWMbh2x0gzHQ-c-29" value="" style="endArrow=classic;startArrow=classic;html=1;entryX=0.058;entryY=1;entryDx=0;entryDy=0;entryPerimeter=0;startSize=1;endSize=1;jumpSize=2;fillColor=#dae8fc;strokeColor=#6c8ebf;" edge="1" parent="1">
          <mxGeometry width="50" height="50" relative="1" as="geometry">
            <mxPoint x="394.82" y="740" as="sourcePoint" />
            <mxPoint x="394.748" y="690" as="targetPoint" />
          </mxGeometry>
        </mxCell>
        <mxCell id="deuajbwWMbh2x0gzHQ-c-30" value="" style="endArrow=classic;startArrow=classic;html=1;entryX=0.058;entryY=1;entryDx=0;entryDy=0;entryPerimeter=0;startSize=1;endSize=1;jumpSize=2;fillColor=#dae8fc;strokeColor=#6c8ebf;" edge="1" parent="1">
          <mxGeometry width="50" height="50" relative="1" as="geometry">
            <mxPoint x="484.81999999999994" y="740" as="sourcePoint" />
            <mxPoint x="484.74800000000005" y="690" as="targetPoint" />
          </mxGeometry>
        </mxCell>
        <mxCell id="deuajbwWMbh2x0gzHQ-c-31" value="" style="endArrow=classic;startArrow=classic;html=1;entryX=0.058;entryY=1;entryDx=0;entryDy=0;entryPerimeter=0;startSize=1;endSize=1;jumpSize=2;fillColor=#dae8fc;strokeColor=#6c8ebf;" edge="1" parent="1">
          <mxGeometry width="50" height="50" relative="1" as="geometry">
            <mxPoint x="754.8199999999999" y="740" as="sourcePoint" />
            <mxPoint x="754.748" y="690" as="targetPoint" />
          </mxGeometry>
        </mxCell>
        <mxCell id="deuajbwWMbh2x0gzHQ-c-57" value="" style="whiteSpace=wrap;html=1;rounded=1;shadow=0;strokeWidth=8;fontSize=20;align=center;fillColor=#FED217;strokeColor=#FFFFFF;" vertex="1" parent="1">
          <mxGeometry x="640" y="400" width="150" height="150" as="geometry" />
        </mxCell>
        <mxCell id="deuajbwWMbh2x0gzHQ-c-58" value="&lt;span style=&quot;color: rgb(0 , 0 , 0) ; font-family: &amp;#34;helvetica&amp;#34; ; font-style: normal ; font-weight: 400 ; letter-spacing: normal ; text-align: center ; text-indent: 0px ; text-transform: none ; word-spacing: 0px ; background-color: rgb(248 , 249 , 250) ; display: inline ; float: none&quot;&gt;&lt;font style=&quot;font-size: 14px&quot;&gt;A-&lt;/font&gt;&lt;/span&gt;" style="text;whiteSpace=wrap;html=1;" vertex="1" parent="1">
          <mxGeometry x="650" y="550" width="140" height="30" as="geometry" />
        </mxCell>
        <mxCell id="deuajbwWMbh2x0gzHQ-c-59" value="&lt;font style=&quot;font-size: 20px&quot;&gt;Android POS&amp;nbsp;&lt;/font&gt;" style="text;html=1;strokeColor=none;fillColor=none;align=center;verticalAlign=middle;whiteSpace=wrap;rounded=0;" vertex="1" parent="1">
          <mxGeometry x="650" y="520" width="130" height="20" as="geometry" />
        </mxCell>
      </root>
    </mxGraphModel>
  </diagram>
</mxfile>
